<svg width="136" height="44" viewBox="0 0 136 44" fill="none" xmlns="http://www.w3.org/2000/svg">
<path d="M20.51 21.988C21.0607 22.0907 21.5133 22.366 21.868 22.814C22.2227 23.262 22.4 23.7753 22.4 24.354C22.4 24.8767 22.2693 25.3387 22.008 25.74C21.756 26.132 21.3873 26.44 20.902 26.664C20.4167 26.888 19.8427 27 19.18 27H14.966V17.228H18.998C19.6607 17.228 20.23 17.3353 20.706 17.55C21.1913 17.7647 21.5553 18.0633 21.798 18.446C22.05 18.8287 22.176 19.2627 22.176 19.748C22.176 20.3173 22.022 20.7933 21.714 21.176C21.4153 21.5587 21.014 21.8293 20.51 21.988ZM16.926 21.26H18.718C19.1847 21.26 19.544 21.1573 19.796 20.952C20.048 20.7373 20.174 20.434 20.174 20.042C20.174 19.65 20.048 19.3467 19.796 19.132C19.544 18.9173 19.1847 18.81 18.718 18.81H16.926V21.26ZM18.9 25.404C19.376 25.404 19.7447 25.292 20.006 25.068C20.2767 24.844 20.412 24.5267 20.412 24.116C20.412 23.696 20.272 23.3693 19.992 23.136C19.712 22.8933 19.334 22.772 18.858 22.772H16.926V25.404H18.9ZM31.3821 19.244L26.5801 30.668H24.4941L26.1741 26.804L23.0661 19.244H25.2641L27.2661 24.662L29.2961 19.244H31.3821ZM42.4246 17.228V18.81H39.8206V27H37.8606V18.81H35.2566V17.228H42.4246ZM43.3507 23.094C43.3507 22.31 43.5047 21.6147 43.8127 21.008C44.13 20.4013 44.5547 19.9347 45.0867 19.608C45.628 19.2813 46.23 19.118 46.8927 19.118C47.4713 19.118 47.9753 19.2347 48.4047 19.468C48.8433 19.7013 49.1933 19.9953 49.4547 20.35V19.244H51.4287V27H49.4547V25.866C49.2027 26.23 48.8527 26.5333 48.4047 26.776C47.966 27.0093 47.4573 27.126 46.8787 27.126C46.2253 27.126 45.628 26.958 45.0867 26.622C44.5547 26.286 44.13 25.8147 43.8127 25.208C43.5047 24.592 43.3507 23.8873 43.3507 23.094ZM49.4547 23.122C49.4547 22.646 49.3613 22.24 49.1747 21.904C48.988 21.5587 48.736 21.2973 48.4187 21.12C48.1013 20.9333 47.7607 20.84 47.3967 20.84C47.0327 20.84 46.6967 20.9287 46.3887 21.106C46.0807 21.2833 45.8287 21.5447 45.6327 21.89C45.446 22.226 45.3527 22.6273 45.3527 23.094C45.3527 23.5607 45.446 23.9713 45.6327 24.326C45.8287 24.6713 46.0807 24.9373 46.3887 25.124C46.706 25.3107 47.042 25.404 47.3967 25.404C47.7607 25.404 48.1013 25.3153 48.4187 25.138C48.736 24.9513 48.988 24.69 49.1747 24.354C49.3613 24.0087 49.4547 23.598 49.4547 23.122ZM57.641 19.132C58.565 19.132 59.3116 19.426 59.881 20.014C60.4503 20.5927 60.735 21.4047 60.735 22.45V27H58.775V22.716C58.775 22.1 58.621 21.6287 58.313 21.302C58.005 20.966 57.585 20.798 57.053 20.798C56.5116 20.798 56.0823 20.966 55.765 21.302C55.457 21.6287 55.303 22.1 55.303 22.716V27H53.343V19.244H55.303V20.21C55.5643 19.874 55.8956 19.6127 56.297 19.426C56.7076 19.23 57.1556 19.132 57.641 19.132ZM65.6368 19.118C66.2155 19.118 66.7241 19.2347 67.1628 19.468C67.6015 19.692 67.9468 19.986 68.1988 20.35V19.244H70.1728V27.056C70.1728 27.7747 70.0281 28.414 69.7388 28.974C69.4495 29.5433 69.0155 29.9913 68.4368 30.318C67.8581 30.654 67.1581 30.822 66.3368 30.822C65.2355 30.822 64.3301 30.5653 63.6208 30.052C62.9208 29.5387 62.5241 28.8387 62.4308 27.952H64.3768C64.4795 28.3067 64.6988 28.5867 65.0348 28.792C65.3801 29.0067 65.7955 29.114 66.2808 29.114C66.8501 29.114 67.3121 28.9413 67.6668 28.596C68.0215 28.26 68.1988 27.7467 68.1988 27.056V25.852C67.9468 26.216 67.5968 26.5193 67.1488 26.762C66.7101 27.0047 66.2061 27.126 65.6368 27.126C64.9835 27.126 64.3861 26.958 63.8448 26.622C63.3035 26.286 62.8741 25.8147 62.5568 25.208C62.2488 24.592 62.0948 23.8873 62.0948 23.094C62.0948 22.31 62.2488 21.6147 62.5568 21.008C62.8741 20.4013 63.2988 19.9347 63.8308 19.608C64.3721 19.2813 64.9741 19.118 65.6368 19.118ZM68.1988 23.122C68.1988 22.646 68.1055 22.24 67.9188 21.904C67.7321 21.5587 67.4801 21.2973 67.1628 21.12C66.8455 20.9333 66.5048 20.84 66.1408 20.84C65.7768 20.84 65.4408 20.9287 65.1328 21.106C64.8248 21.2833 64.5728 21.5447 64.3768 21.89C64.1901 22.226 64.0968 22.6273 64.0968 23.094C64.0968 23.5607 64.1901 23.9713 64.3768 24.326C64.5728 24.6713 64.8248 24.9373 65.1328 25.124C65.4501 25.3107 65.7861 25.404 66.1408 25.404C66.5048 25.404 66.8455 25.3153 67.1628 25.138C67.4801 24.9513 67.7321 24.69 67.9188 24.354C68.1055 24.0087 68.1988 23.598 68.1988 23.122ZM75.1251 19.118C75.7038 19.118 76.2124 19.2347 76.6511 19.468C77.0898 19.692 77.4351 19.986 77.6871 20.35V19.244H79.6611V27.056C79.6611 27.7747 79.5164 28.414 79.2271 28.974C78.9378 29.5433 78.5038 29.9913 77.9251 30.318C77.3464 30.654 76.6464 30.822 75.8251 30.822C74.7238 30.822 73.8184 30.5653 73.1091 30.052C72.4091 29.5387 72.0124 28.8387 71.9191 27.952H73.8651C73.9678 28.3067 74.1871 28.5867 74.5231 28.792C74.8684 29.0067 75.2838 29.114 75.7691 29.114C76.3384 29.114 76.8004 28.9413 77.1551 28.596C77.5098 28.26 77.6871 27.7467 77.6871 27.056V25.852C77.4351 26.216 77.0851 26.5193 76.6371 26.762C76.1984 27.0047 75.6944 27.126 75.1251 27.126C74.4718 27.126 73.8744 26.958 73.3331 26.622C72.7918 26.286 72.3624 25.8147 72.0451 25.208C71.7371 24.592 71.5831 23.8873 71.5831 23.094C71.5831 22.31 71.7371 21.6147 72.0451 21.008C72.3624 20.4013 72.7871 19.9347 73.3191 19.608C73.8604 19.2813 74.4624 19.118 75.1251 19.118ZM77.6871 23.122C77.6871 22.646 77.5938 22.24 77.4071 21.904C77.2204 21.5587 76.9684 21.2973 76.6511 21.12C76.3338 20.9333 75.9931 20.84 75.6291 20.84C75.2651 20.84 74.9291 20.9287 74.6211 21.106C74.3131 21.2833 74.0611 21.5447 73.8651 21.89C73.6784 22.226 73.5851 22.6273 73.5851 23.094C73.5851 23.5607 73.6784 23.9713 73.8651 24.326C74.0611 24.6713 74.3131 24.9373 74.6211 25.124C74.9384 25.3107 75.2744 25.404 75.6291 25.404C75.9931 25.404 76.3338 25.3153 76.6511 25.138C76.9684 24.9513 77.2204 24.69 77.4071 24.354C77.5938 24.0087 77.6871 23.598 77.6871 23.122ZM81.0714 23.094C81.0714 22.31 81.2254 21.6147 81.5334 21.008C81.8507 20.4013 82.2754 19.9347 82.8074 19.608C83.3487 19.2813 83.9507 19.118 84.6134 19.118C85.192 19.118 85.696 19.2347 86.1254 19.468C86.564 19.7013 86.914 19.9953 87.1754 20.35V19.244H89.1494V27H87.1754V25.866C86.9234 26.23 86.5734 26.5333 86.1254 26.776C85.6867 27.0093 85.178 27.126 84.5994 27.126C83.946 27.126 83.3487 26.958 82.8074 26.622C82.2754 26.286 81.8507 25.8147 81.5334 25.208C81.2254 24.592 81.0714 23.8873 81.0714 23.094ZM87.1754 23.122C87.1754 22.646 87.082 22.24 86.8954 21.904C86.7087 21.5587 86.4567 21.2973 86.1394 21.12C85.822 20.9333 85.4814 20.84 85.1174 20.84C84.7534 20.84 84.4174 20.9287 84.1094 21.106C83.8014 21.2833 83.5494 21.5447 83.3534 21.89C83.1667 22.226 83.0734 22.6273 83.0734 23.094C83.0734 23.5607 83.1667 23.9713 83.3534 24.326C83.5494 24.6713 83.8014 24.9373 84.1094 25.124C84.4267 25.3107 84.7627 25.404 85.1174 25.404C85.4814 25.404 85.822 25.3153 86.1394 25.138C86.4567 24.9513 86.7087 24.69 86.8954 24.354C87.082 24.0087 87.1754 23.598 87.1754 23.122ZM93.0237 16.64V27H91.0637V16.64H93.0237Z" fill="#7A7F83"/>
<path d="M111.131 17.3692C111.189 17.4257 111.437 17.6391 111.641 17.8378C112.924 19.0029 115.024 22.0424 115.665 23.6332C115.768 23.8748 115.986 24.4856 116 24.812C116 25.1247 115.928 25.4228 115.782 25.7073C115.578 26.0619 115.257 26.3463 114.878 26.5022C114.615 26.6025 113.828 26.7584 113.814 26.7584C112.953 26.9143 111.554 27 110.008 27C108.535 27 107.193 26.9143 106.319 26.7867C106.305 26.772 105.327 26.6162 104.992 26.4457C104.38 26.133 104 25.5222 104 24.8685V24.812C104.015 24.3863 104.395 23.491 104.409 23.491C105.051 21.9859 107.048 19.0166 108.375 17.8232C108.375 17.8232 108.716 17.4871 108.929 17.341C109.235 17.113 109.614 17 109.993 17C110.416 17 110.81 17.1276 111.131 17.3692Z" fill="#CCCED2"/>
<rect x="0.5" y="0.5" width="135" height="43" rx="21.5" stroke="#CCCED2"/>
</svg>
