<svg width="95" height="34" viewBox="0 0 95 34" fill="none" xmlns="http://www.w3.org/2000/svg">
<rect x="0.5" y="0.5" width="94" height="33" rx="16.5" fill="white"/>
<path fill-rule="evenodd" clip-rule="evenodd" d="M12.1082 17.0338C12.1082 10.3402 14.34 8.1084 21.0336 8.1084C27.7272 8.1084 29.959 10.3402 29.959 17.0338C29.959 23.7274 27.7272 25.9593 21.0336 25.9593C14.34 25.9593 12.1082 23.7274 12.1082 17.0338Z" fill="#FF5F26" stroke="#FF5F26" stroke-width="1.83333" stroke-linecap="round" stroke-linejoin="round"/>
<path d="M21.0337 13.7574V20.3102" stroke="white" stroke-width="1.83333" stroke-linecap="round" stroke-linejoin="round"/>
<path d="M24.3133 17.0338H17.7538" stroke="white" stroke-width="1.83333" stroke-linecap="round" stroke-linejoin="round"/>
<path d="M41.036 22V14.488H38.144V13.456H45.176V14.488H42.284V22H41.036ZM50.8067 15.952V22H49.6067V20.968C49.4307 21.328 49.1667 21.604 48.8147 21.796C48.4707 21.988 48.0667 22.084 47.6027 22.084C47.0667 22.084 46.5947 21.956 46.1867 21.7C45.7867 21.444 45.4747 21.084 45.2507 20.62C45.0267 20.148 44.9147 19.6 44.9147 18.976C44.9147 18.352 45.0267 17.8 45.2507 17.32C45.4827 16.84 45.8027 16.468 46.2107 16.204C46.6187 15.94 47.0827 15.808 47.6027 15.808C48.0667 15.808 48.4707 15.908 48.8147 16.108C49.1587 16.3 49.4227 16.576 49.6067 16.936V15.952H50.8067ZM47.8907 21.124C48.4347 21.124 48.8547 20.936 49.1507 20.56C49.4547 20.176 49.6067 19.64 49.6067 18.952C49.6067 18.256 49.4547 17.72 49.1507 17.344C48.8547 16.968 48.4307 16.78 47.8787 16.78C47.3347 16.78 46.9067 16.976 46.5947 17.368C46.2907 17.752 46.1387 18.288 46.1387 18.976C46.1387 19.656 46.2907 20.184 46.5947 20.56C46.9067 20.936 47.3387 21.124 47.8907 21.124ZM59.4872 15.808C60.8312 15.808 61.5032 16.616 61.5032 18.232V22H60.2912V18.292C60.2912 17.772 60.1992 17.392 60.0152 17.152C59.8392 16.912 59.5512 16.792 59.1512 16.792C58.6872 16.792 58.3192 16.952 58.0472 17.272C57.7832 17.592 57.6512 18.028 57.6512 18.58V22H56.4392V18.292C56.4392 17.772 56.3472 17.392 56.1632 17.152C55.9872 16.912 55.6992 16.792 55.2992 16.792C54.8352 16.792 54.4672 16.952 54.1952 17.272C53.9232 17.592 53.7872 18.028 53.7872 18.58V22H52.5872V17.656C52.5872 17.024 52.5552 16.456 52.4912 15.952H53.6192L53.7272 16.96C53.9032 16.592 54.1552 16.308 54.4832 16.108C54.8112 15.908 55.1952 15.808 55.6352 15.808C56.5712 15.808 57.1832 16.196 57.4712 16.972C57.6552 16.612 57.9232 16.328 58.2752 16.12C58.6352 15.912 59.0392 15.808 59.4872 15.808ZM66.4436 15.808C66.9716 15.808 67.4396 15.936 67.8476 16.192C68.2556 16.448 68.5716 16.812 68.7956 17.284C69.0196 17.756 69.1316 18.304 69.1316 18.928C69.1316 19.552 69.0156 20.104 68.7836 20.584C68.5596 21.056 68.2436 21.424 67.8356 21.688C67.4276 21.952 66.9636 22.084 66.4436 22.084C65.9796 22.084 65.5716 21.988 65.2196 21.796C64.8756 21.596 64.6156 21.312 64.4396 20.944V22H63.2396V13.168H64.4396V16.948C64.6156 16.588 64.8756 16.308 65.2196 16.108C65.5716 15.908 65.9796 15.808 66.4436 15.808ZM66.1676 21.124C66.7116 21.124 67.1356 20.932 67.4396 20.548C67.7436 20.156 67.8956 19.616 67.8956 18.928C67.8956 18.248 67.7436 17.72 67.4396 17.344C67.1356 16.968 66.7116 16.78 66.1676 16.78C65.6156 16.78 65.1876 16.968 64.8836 17.344C64.5876 17.72 64.4396 18.256 64.4396 18.952C64.4396 19.648 64.5876 20.184 64.8836 20.56C65.1876 20.936 65.6156 21.124 66.1676 21.124ZM76.0841 15.952V22H74.8841V20.968C74.7081 21.328 74.4441 21.604 74.0921 21.796C73.7481 21.988 73.3441 22.084 72.8801 22.084C72.3441 22.084 71.8721 21.956 71.4641 21.7C71.0641 21.444 70.7521 21.084 70.5281 20.62C70.3041 20.148 70.1921 19.6 70.1921 18.976C70.1921 18.352 70.3041 17.8 70.5281 17.32C70.7601 16.84 71.0801 16.468 71.4881 16.204C71.8961 15.94 72.3601 15.808 72.8801 15.808C73.3441 15.808 73.7481 15.908 74.0921 16.108C74.4361 16.3 74.7001 16.576 74.8841 16.936V15.952H76.0841ZM73.1681 21.124C73.7121 21.124 74.1321 20.936 74.4281 20.56C74.7321 20.176 74.8841 19.64 74.8841 18.952C74.8841 18.256 74.7321 17.72 74.4281 17.344C74.1321 16.968 73.7081 16.78 73.1561 16.78C72.6121 16.78 72.1841 16.976 71.8721 17.368C71.5681 17.752 71.4161 18.288 71.4161 18.976C71.4161 19.656 71.5681 20.184 71.8721 20.56C72.1841 20.936 72.6161 21.124 73.1681 21.124ZM81.0806 15.808C82.5286 15.808 83.2526 16.616 83.2526 18.232V22H82.0406V18.304C82.0406 17.776 81.9366 17.392 81.7286 17.152C81.5286 16.912 81.2046 16.792 80.7566 16.792C80.2446 16.792 79.8326 16.952 79.5206 17.272C79.2166 17.592 79.0646 18.02 79.0646 18.556V22H77.8646V13.168H79.0646V16.888C79.2646 16.536 79.5406 16.268 79.8926 16.084C80.2446 15.9 80.6406 15.808 81.0806 15.808Z" fill="#FF5F26"/>
<rect x="0.5" y="0.5" width="94" height="33" rx="16.5" stroke="#CCCED2"/>
</svg>
