<svg width="14" height="18" viewBox="0 0 14 18" fill="none" xmlns="http://www.w3.org/2000/svg">
<path d="M12.25 5V15C12.25 15.3978 12.092 15.7794 11.8107 16.0607C11.5294 16.342 11.1478 16.5 10.75 16.5H3.25C2.85218 16.5 2.47064 16.342 2.18934 16.0607C1.90804 15.7794 1.75 15.3978 1.75 15V5M4 4V3C4 2.60218 4.15804 2.22064 4.43934 1.93934C4.72064 1.65804 5.10218 1.5 5.5 1.5H8.5C8.89782 1.5 9.27936 1.65804 9.56066 1.93934C9.84196 2.22064 10 2.60218 10 3V4" stroke="#CCCED2" stroke-width="2" stroke-linecap="round" stroke-linejoin="round"/>
</svg>
